<svg fill="#000000" xmlns="http://www.w3.org/2000/svg" viewBox="0 0 50 50" width="50px" height="50px"><path fill="none" stroke="#000000" stroke-linecap="round" stroke-miterlimit="10" stroke-width="2" d="M47,10H3c-1.104,0-2,0.896-2,2v32c0,1.104,0.896,2,2,2h44c1.104,0,2-0.896,2-2V12C49,10.896,48.104,10,47,10z"/><path fill="none" stroke="#000000" stroke-linecap="round" stroke-miterlimit="10" stroke-width="2" d="M1 27c0 1.104.896 2 2 2h44c1.104 0 2-.896 2-2M32 9V6c0-1.104-.896-2-2-2H20c-1.104 0-2 .896-2 2v3"/><path d="M25 22A2 2 0 1 0 25 26A2 2 0 1 0 25 22Z"/></svg>