<svg fill="#000000" xmlns="http://www.w3.org/2000/svg" viewBox="0 0 50 50" width="50px" height="50px"><path fill="none" d="M0 0H50V50H0z"/><path fill="none" stroke="#000000" stroke-linecap="round" stroke-miterlimit="10" stroke-width="2" d="M32,9V6c0-1.104-0.896-2-2-2H20c-1.104,0-2,0.896-2,2v3"/><path d="M47,30H3c-1.654,0-3-1.346-3-3v17c0,1.654,1.346,3,3,3h44c1.654,0,3-1.346,3-3V27C50,28.654,48.654,30,47,30z"/><path d="M47,9H3c-1.654,0-3,1.346-3,3v13c0,1.654,1.346,3,3,3h44c1.654,0,3-1.346,3-3V12C50,10.346,48.654,9,47,9z M25,26c-1.104,0-2-0.896-2-2s0.896-2,2-2s2,0.896,2,2S26.104,26,25,26z"/></svg>